<svg width="19" height="18" viewBox="0 0 19 18" fill="none" xmlns="http://www.w3.org/2000/svg">
<path d="M17.9285 9.03732L9.6662 0.781024C9.60671 0.721417 9.53605 0.674127 9.45826 0.641861C9.38047 0.609595 9.29708 0.592987 9.21287 0.592987C9.12865 0.592987 9.04526 0.609595 8.96747 0.641861C8.88969 0.674127 8.81903 0.721417 8.75953 0.781024L0.497227 9.03732C0.256518 9.27802 0.120117 9.60499 0.120117 9.94599C0.120117 10.6541 0.695811 11.2298 1.40389 11.2298H2.27446V17.1211C2.27446 17.4761 2.5613 17.763 2.91634 17.763H7.92909V13.2698H10.1757V17.763H15.5094C15.8644 17.763 16.1513 17.4761 16.1513 17.1211V11.2298H17.0218C17.3628 11.2298 17.6898 11.0954 17.9305 10.8527C18.43 10.3512 18.43 9.53879 17.9285 9.03732Z" fill="black"/>
</svg>
