<svg width="17" height="18" viewBox="0 0 17 18" fill="none" xmlns="http://www.w3.org/2000/svg">
<path d="M13.736 11.1193V2.91421C13.736 2.3177 13.4991 1.74569 13.0772 1.3238C12.6555 0.902086 12.0833 0.665039 11.4868 0.665039H2.85C2.25349 0.665039 1.68131 0.902098 1.2596 1.3238C0.837716 1.74569 0.60083 2.3177 0.60083 2.91421V13.4584C0.60083 14.0549 0.837732 14.6271 1.2596 15.0488C1.68131 15.4707 2.25349 15.7076 2.85 15.7076H9.84934C10.2944 16.8118 11.2849 17.6023 12.4603 17.7917C13.6356 17.9811 14.8241 17.5416 15.5937 16.6332C16.3631 15.7248 16.6011 14.4801 16.221 13.3519C15.8408 12.2238 14.898 11.3768 13.7358 11.1193L13.736 11.1193ZM3.97458 3.90384H10.3622C10.609 3.90777 10.8082 4.10686 10.812 4.35364C10.812 4.47303 10.7646 4.5874 10.6804 4.67181C10.596 4.75606 10.4816 4.80344 10.3622 4.80344H3.97458C3.72606 4.80344 3.52478 4.60215 3.52478 4.35365C3.52855 4.10686 3.7278 3.90775 3.97458 3.90385L3.97458 3.90384ZM3.97458 6.45894H10.3622C10.6107 6.45894 10.812 6.66023 10.812 6.90874C10.812 7.15709 10.6107 7.35853 10.3622 7.35853H3.97458C3.72607 7.35853 3.52479 7.15708 3.52479 6.90874C3.52479 6.66022 3.72608 6.45894 3.97458 6.45894ZM3.97458 9.01404H10.3622V9.01388C10.4816 9.01388 10.596 9.06126 10.6804 9.14567C10.7647 9.23008 10.812 9.34445 10.812 9.46384C10.8083 9.71063 10.609 9.90974 10.3622 9.91364H3.97459C3.72781 9.90971 3.52857 9.71062 3.5248 9.46384C3.5248 9.21533 3.72609 9.01389 3.97459 9.01389L3.97458 9.01404ZM8.89585 12.4688L3.97458 12.4686C3.72607 12.4686 3.52479 12.2673 3.52479 12.0188C3.52479 11.7705 3.72608 11.569 3.97458 11.569H8.89585C9.14436 11.569 9.34564 11.7705 9.34564 12.0188C9.34564 12.2673 9.14435 12.4686 8.89585 12.4686V12.4688ZM12.9982 16.9402V16.94C12.3336 16.9413 11.6958 16.6785 11.2251 16.2094C10.7545 15.7403 10.4893 15.1035 10.4881 14.4391C10.4868 13.7745 10.7498 13.1367 11.2187 12.6661C11.6878 12.1952 12.3246 11.9301 12.9892 11.929C13.6536 11.9277 14.2914 12.1907 14.7622 12.6596C15.2329 13.1287 15.498 13.7655 15.4993 14.4299C15.4994 15.0942 15.2363 15.7315 14.7675 16.202C14.2986 16.6725 13.6624 16.938 12.9981 16.94L12.9982 16.9402ZM13.448 13.0851V14.4347V14.4345C13.4483 14.6197 13.335 14.7861 13.1627 14.8538L12.3369 15.1768C12.2845 15.1974 12.2286 15.2079 12.1723 15.2074C11.9557 15.2077 11.7696 15.0537 11.7296 14.8409C11.6894 14.628 11.8068 14.4168 12.0085 14.3384L12.5484 14.1278V13.0851C12.5484 12.8366 12.7497 12.6352 12.9982 12.6352C13.2467 12.6352 13.448 12.8366 13.448 13.0851V13.0851Z" fill="black"/>
</svg>
