<svg width="14" height="18" viewBox="0 0 14 18" fill="none" xmlns="http://www.w3.org/2000/svg">
<path d="M7.20096 9.992C8.63257 9.992 9.92901 9.42349 10.868 8.50421C12.6191 9.64281 13.7738 11.593 13.7738 13.8075V14.5417C13.774 15.091 13.5433 15.6221 13.1001 15.9464C11.4783 17.1326 9.46644 17.835 7.28749 17.835C5.10854 17.835 3.09686 17.1328 1.47491 15.9464C1.03163 15.6222 0.801025 15.0911 0.801025 14.5419L0.801158 13.8074L0.801425 13.7424C0.823382 11.598 1.9279 9.70777 3.6048 8.57196C4.53739 9.45145 5.80466 9.99203 7.20095 9.99203L7.20096 9.992Z" fill="black"/>
<path d="M2.87695 4.9047C2.87695 2.56324 4.81293 0.665009 7.20113 0.665009C9.58932 0.665009 11.5253 2.56307 11.5253 4.9047C11.5253 7.24605 9.58932 9.14404 7.20113 9.14404C4.81293 9.14404 2.87695 7.24598 2.87695 4.9047Z" fill="black"/>
</svg>
