<svg width="36" height="36" viewBox="0 0 36 36" fill="none" xmlns="http://www.w3.org/2000/svg">
<circle cx="17.7337" cy="17.6828" r="17.4308" fill="#801645" fill-opacity="0.1"/>
<path d="M33.2906 20.024V19.999C33.2821 19.8935 33.2621 19.789 33.2315 19.6877C32.8265 17.819 31.4219 16.1311 29.5534 15.6514C28.6314 15.4277 27.6947 15.2693 26.7504 15.1781C26.03 15.1414 25.37 14.7645 24.9722 14.1629C23.3123 11.7898 20.9952 10.4258 18.1546 9.91178C15.491 9.48034 12.7749 9.48664 10.1135 9.93046C8.57413 10.1368 7.20944 11.0255 6.39826 12.3503C6.05872 12.8767 5.79414 13.4591 5.42653 13.9635C5.08091 14.514 4.64989 15.0061 4.1496 15.421C3.26001 15.996 2.6402 16.9056 2.43059 17.9438C2.30286 18.632 2.21879 19.3265 2.14709 20.024H2.16274C2.15796 20.0946 2.15796 20.1652 2.16274 20.2358V21.793C2.17121 22.1308 2.44754 22.4004 2.78555 22.4002H5.1213C5.25099 21.1546 5.99176 20.0547 7.09752 19.4662C8.20328 18.8779 9.52932 18.8779 10.635 19.4662C11.7408 20.0547 12.4815 21.1545 12.6112 22.4002H23.7511V22.2601C23.7891 20.9402 24.5151 19.7364 25.665 19.0871C26.8148 18.4377 28.2208 18.4377 29.3707 19.0871C30.5205 19.7364 31.2467 20.9401 31.2848 22.2601V22.4002H32.6955C33.0335 22.4004 33.3099 22.1308 33.3183 21.793V20.105C33.3198 20.0781 33.3198 20.051 33.3183 20.024L33.2906 20.024ZM14.4177 15.8352C12.5489 15.8352 10.7302 15.8819 8.91457 15.8135C8.02086 15.7824 7.81209 15.3091 8.14227 14.4618C9.23846 11.659 11.0075 10.7434 14.4177 11.2665V15.8352ZM22.456 15.8352C20.4285 15.8663 18.4073 15.8352 16.2618 15.8352V11.3132C18.6006 10.8803 22.1106 12.6836 23.1133 14.8199C23.4186 15.4897 23.2411 15.8383 22.4562 15.8509L22.456 15.8352Z" fill="url(#paint0_linear_1_1189)"/>
<path d="M8.83353 19.8494C8.04777 19.8511 7.29482 20.1651 6.74041 20.722C6.186 21.279 5.87602 22.0337 5.87819 22.8195C5.88036 23.6052 6.1947 24.3582 6.75215 24.9119C7.30956 25.4659 8.06451 25.7757 8.85027 25.7728C9.63603 25.77 10.3887 25.4552 10.9423 24.8974C11.4958 24.3395 11.8049 23.5846 11.8017 22.7986C11.7991 22.014 11.4849 21.2625 10.9284 20.7095C10.3718 20.1564 9.61817 19.847 8.83353 19.8494ZM8.83353 24.1253V24.1256C8.48399 24.1256 8.14882 23.9865 7.90178 23.7393C7.65457 23.4919 7.51597 23.1566 7.51618 22.8071C7.51662 22.4574 7.65565 22.1224 7.9033 21.8754C8.15073 21.6286 8.48613 21.4902 8.83571 21.4906C9.18525 21.4913 9.52026 21.6308 9.76701 21.8784C10.0136 22.1261 10.1517 22.4617 10.1511 22.8112C10.1476 23.1581 10.0073 23.4896 9.76049 23.7336C9.51371 23.9774 9.18045 24.1138 8.83353 24.1129L8.83353 24.1253Z" fill="url(#paint1_linear_1_1189)"/>
<path d="M30.4876 22.2663C30.4876 21.4806 30.1755 20.7272 29.6198 20.1717C29.0641 19.6162 28.3105 19.3043 27.5247 19.3045C26.7392 19.3049 25.9858 19.6173 25.4306 20.1732C24.8753 20.7289 24.5635 21.4828 24.5642 22.2685C24.5646 23.0541 24.8775 23.8074 25.4334 24.3625C25.9895 24.9175 26.7434 25.2288 27.5289 25.2279C28.3142 25.2279 29.0672 24.916 29.6222 24.3602C30.1771 23.8048 30.4884 23.0514 30.4877 22.2663L30.4876 22.2663ZM26.2117 22.2663H26.2115C26.2123 21.9162 26.3525 21.581 26.6012 21.3344C26.8497 21.0878 27.1863 20.9503 27.5362 20.9523C27.8864 20.9542 28.2211 21.0954 28.467 21.3446C28.7127 21.594 28.8492 21.9309 28.8461 22.2809C28.8431 22.6311 28.7008 22.9656 28.4507 23.2105C28.2007 23.4555 27.8633 23.5909 27.5134 23.5867C27.1636 23.5861 26.8287 23.4466 26.5816 23.199C26.3346 22.9513 26.196 22.6161 26.196 22.2663L26.2117 22.2663Z" fill="url(#paint2_linear_1_1189)"/>
<defs>
<linearGradient id="paint0_linear_1_1189" x1="17.7333" y1="9.59283" x2="17.7333" y2="22.4002" gradientUnits="userSpaceOnUse">
<stop stop-color="#2B145C"/>
<stop offset="1" stop-color="#BA1837"/>
</linearGradient>
<linearGradient id="paint1_linear_1_1189" x1="8.83993" y1="19.8494" x2="8.83993" y2="25.7728" gradientUnits="userSpaceOnUse">
<stop stop-color="#2B145C"/>
<stop offset="1" stop-color="#BA1837"/>
</linearGradient>
<linearGradient id="paint2_linear_1_1189" x1="27.5259" y1="19.3045" x2="27.5259" y2="25.2279" gradientUnits="userSpaceOnUse">
<stop stop-color="#2B145C"/>
<stop offset="1" stop-color="#BA1837"/>
</linearGradient>
</defs>
</svg>
