<svg width="19" height="14" viewBox="0 0 19 14" fill="none" xmlns="http://www.w3.org/2000/svg">
<path fill-rule="evenodd" clip-rule="evenodd" d="M17.3819 6.80962C17.0706 6.27377 16.2666 5.02343 14.973 3.90326C14.7228 3.68603 14.6958 3.30687 14.9125 3.05672C15.129 2.80655 15.5083 2.77896 15.759 2.99619C17.6568 4.63962 18.6024 6.54025 18.6024 6.54025C18.687 6.70886 18.687 6.90803 18.6024 7.07664C18.6024 7.07664 15.6157 13.008 9.66632 13.008C8.47477 13.008 7.40082 12.7721 6.44498 12.393C6.13722 12.2712 5.98656 11.922 6.10843 11.6142C6.23084 11.3064 6.57944 11.1558 6.88787 11.2776C7.71232 11.6047 8.63802 11.808 9.66644 11.808C14.1969 11.808 16.7638 7.88542 17.3823 6.80955L17.3819 6.80962ZM11.9563 6.08843C12.0277 6.31583 12.0661 6.55758 12.0661 6.80842C12.0661 8.13323 10.991 9.20838 9.66617 9.20838C9.41533 9.20838 9.17359 9.16994 8.94618 9.09856C8.63065 8.99892 8.29343 9.17476 8.19379 9.49095C8.09415 9.80648 8.27 10.1437 8.58619 10.2433C8.92703 10.3501 9.28996 10.4083 9.66617 10.4083C11.6527 10.4083 13.2661 8.79491 13.2661 6.80839C13.2661 6.43218 13.2079 6.06924 13.1011 5.72841C13.0015 5.41221 12.6644 5.23635 12.3487 5.33602C12.0325 5.43566 11.8567 5.77274 11.9563 6.08841L11.9563 6.08843Z" fill="#828282"/>
<path fill-rule="evenodd" clip-rule="evenodd" d="M13.9171 1.70844L15.2412 0.384308C15.4752 0.15034 15.8557 0.15034 16.0897 0.384308C16.3236 0.618277 16.3236 0.998768 16.0897 1.23273L14.4462 2.87616C14.4421 2.88098 14.4373 2.8858 14.4324 2.88995L5.74594 11.5764C5.74179 11.5813 5.73697 11.5861 5.73215 11.5902L4.08996 13.2324C3.85599 13.4664 3.4755 13.4664 3.24153 13.2324C3.00757 12.9985 3.00757 12.618 3.24153 12.384L4.37308 11.2525C1.94257 9.50834 0.729254 7.07652 0.729254 7.07652C0.644611 6.90791 0.644611 6.70875 0.729254 6.54013C0.729254 6.54013 3.71594 0.608797 9.66534 0.608797C11.3069 0.608797 12.7247 1.05639 13.9167 1.7086L13.9171 1.70844ZM13.0273 2.59824C12.0637 2.1236 10.9436 1.80862 9.66561 1.80862C5.13448 1.80862 2.56789 5.73187 1.94973 6.80705C2.32525 7.45566 3.4209 9.14942 5.23414 10.3916L6.73172 8.89399C6.31228 8.30539 6.0657 7.5854 6.0657 6.80849C6.0657 4.82198 7.67912 3.20855 9.66564 3.20855C10.4427 3.20855 11.1627 3.45511 11.7511 3.87457L13.0273 2.59838L13.0273 2.59824ZM10.8841 4.74079C10.527 4.52959 10.1101 4.40838 9.66547 4.40838C8.34066 4.40838 7.26551 5.48353 7.26551 6.80835C7.26551 7.25299 7.38671 7.6699 7.59791 8.02694L10.8841 4.74079Z" fill="#828282"/>
</svg>
