<svg width="17" height="21" viewBox="0 0 17 21" fill="none" xmlns="http://www.w3.org/2000/svg">
<path d="M15.9735 20.0819H0.786516C0.548126 20.0819 0.354614 20.2752 0.354614 20.5138C0.354614 20.7522 0.547943 20.9457 0.786516 20.9457H15.9735C16.2119 20.9457 16.4054 20.7524 16.4054 20.5138C16.4054 20.2752 16.2121 20.0819 15.9737 20.0819H15.9735Z" fill="black"/>
<path d="M8.37954 10.1864C10.1457 10.1864 11.5663 7.93665 11.5663 6.07558C11.5663 4.24038 10.1369 2.75073 8.37954 2.75073C6.62631 2.75073 5.19714 4.24038 5.19714 6.07558C5.19698 7.93665 6.6177 10.1864 8.37954 10.1864Z" fill="black"/>
<path d="M3.91046 8.00143H4.30772C4.54528 8.00143 4.73962 7.81142 4.73962 7.56953V4.94839C4.73962 4.75407 4.61438 4.59437 4.4459 4.54252C4.64884 3.18226 5.87524 1.80924 7.45997 1.80924H9.30382C10.094 1.80924 10.8541 2.15896 11.45 2.79379C11.9163 3.29473 12.223 3.91218 12.3136 4.54252C12.1451 4.59437 12.02 4.75407 12.02 4.94839V7.56953C12.02 7.8114 12.2143 8.00143 12.4519 8.00143H12.8492C13.8725 8.00143 14.7059 7.21982 14.7059 6.26132C14.7059 5.41062 14.0539 4.69813 13.1903 4.54702C13.091 3.70065 12.6981 2.86738 12.0762 2.20223C11.7004 1.79635 11.2644 1.48109 10.7936 1.26955C10.3229 1.058 9.81767 0.945679 9.30379 0.945679H7.45994C5.37855 0.945679 3.78521 2.77227 3.56934 4.54704C2.71003 4.69812 2.05798 5.41063 2.05798 6.26133C2.05798 7.21988 2.88697 8.00145 3.91045 8.00145L3.91046 8.00143Z" fill="black"/>
<path d="M2.58041 18.4469C2.7358 19.1162 3.41385 19.5998 4.19529 19.5998H12.5636C13.3452 19.5998 14.0274 19.1162 14.1785 18.4642L15.2493 14.5779C15.3184 14.2799 15.284 13.9777 15.1456 13.71H1.61731C1.47915 13.982 1.44022 14.2843 1.51361 14.5951L2.58041 18.4469Z" fill="black"/>
<path d="M3.62073 12.8464H13.1422C12.5334 11.9828 11.5316 11.1278 10.3872 11.1278H6.37563C5.22726 11.1278 4.22549 11.9828 3.62081 12.8464H3.62073Z" fill="black"/>
</svg>
